<mxfile host="Electron" modified="2024-12-25T23:00:26.994Z" agent="Mozilla/5.0 (Windows NT 10.0; Win64; x64) AppleWebKit/537.36 (KHTML, like Gecko) draw.io/24.1.0 Chrome/120.0.6099.109 Electron/28.1.0 Safari/537.36" etag="bBfxmBNQbKpOWN8zjcA5" version="24.1.0" type="device">
  <diagram name="Página-1" id="HnM5bIwWVijFqjH4xQIT">
    <mxGraphModel dx="1996" dy="1364" grid="1" gridSize="10" guides="1" tooltips="1" connect="1" arrows="1" fold="1" page="1" pageScale="1" pageWidth="827" pageHeight="1169" math="0" shadow="0">
      <root>
        <mxCell id="0" />
        <mxCell id="1" parent="0" />
        <mxCell id="-QEYVNw1Sq_qMehAPY2h-3" value="&amp;lt;&amp;lt;component&amp;gt;&amp;gt;&lt;div&gt;&amp;lt;&amp;lt;C4 System&amp;gt;&amp;gt;&lt;br&gt;&lt;b&gt;Hospital de Paranhos&lt;/b&gt;&lt;/div&gt;&lt;div&gt;&lt;b&gt;&lt;br&gt;&lt;/b&gt;&lt;/div&gt;&lt;div&gt;&lt;b&gt;&lt;br&gt;&lt;/b&gt;&lt;/div&gt;&lt;div&gt;&lt;b&gt;&lt;br&gt;&lt;/b&gt;&lt;/div&gt;&lt;div&gt;&lt;b&gt;&lt;br&gt;&lt;/b&gt;&lt;/div&gt;&lt;div&gt;&lt;b&gt;&lt;br&gt;&lt;/b&gt;&lt;/div&gt;&lt;div&gt;&lt;b&gt;&lt;br&gt;&lt;/b&gt;&lt;/div&gt;&lt;div&gt;&lt;b&gt;&lt;br&gt;&lt;/b&gt;&lt;/div&gt;&lt;div&gt;&lt;b&gt;&lt;br&gt;&lt;/b&gt;&lt;/div&gt;&lt;div&gt;&lt;b&gt;&lt;br&gt;&lt;/b&gt;&lt;/div&gt;&lt;div&gt;&lt;b&gt;&lt;br&gt;&lt;/b&gt;&lt;/div&gt;&lt;div&gt;&lt;b&gt;&lt;br&gt;&lt;/b&gt;&lt;/div&gt;&lt;div&gt;&lt;b&gt;&lt;br&gt;&lt;/b&gt;&lt;/div&gt;&lt;div&gt;&lt;b&gt;&lt;br&gt;&lt;/b&gt;&lt;/div&gt;&lt;div&gt;&lt;b&gt;&lt;br&gt;&lt;/b&gt;&lt;/div&gt;&lt;div&gt;&lt;b&gt;&lt;br&gt;&lt;/b&gt;&lt;/div&gt;&lt;div&gt;&lt;b&gt;&lt;br&gt;&lt;/b&gt;&lt;/div&gt;&lt;div&gt;&lt;b&gt;&lt;br&gt;&lt;/b&gt;&lt;/div&gt;&lt;div&gt;&lt;b&gt;&lt;br&gt;&lt;/b&gt;&lt;/div&gt;&lt;div&gt;&lt;b&gt;&lt;br&gt;&lt;/b&gt;&lt;/div&gt;&lt;div&gt;&lt;b&gt;&lt;br&gt;&lt;/b&gt;&lt;/div&gt;&lt;div&gt;&lt;b&gt;&lt;br&gt;&lt;/b&gt;&lt;/div&gt;&lt;div&gt;&lt;b&gt;&lt;br&gt;&lt;/b&gt;&lt;/div&gt;&lt;div&gt;&lt;b&gt;&lt;br&gt;&lt;/b&gt;&lt;/div&gt;&lt;div&gt;&lt;b&gt;&lt;br&gt;&lt;/b&gt;&lt;/div&gt;&lt;div&gt;&lt;b&gt;&lt;br&gt;&lt;/b&gt;&lt;/div&gt;&lt;div&gt;&lt;b&gt;&lt;br&gt;&lt;/b&gt;&lt;/div&gt;&lt;div&gt;&lt;b&gt;&lt;br&gt;&lt;/b&gt;&lt;/div&gt;&lt;div&gt;&lt;b&gt;&lt;br&gt;&lt;/b&gt;&lt;/div&gt;&lt;div&gt;&lt;b&gt;&lt;br&gt;&lt;/b&gt;&lt;/div&gt;&lt;div&gt;&lt;b&gt;&lt;br&gt;&lt;/b&gt;&lt;/div&gt;&lt;div&gt;&lt;br&gt;&lt;/div&gt;&lt;div&gt;&lt;br&gt;&lt;/div&gt;&lt;div&gt;&lt;br&gt;&lt;/div&gt;" style="html=1;dropTarget=0;whiteSpace=wrap;" parent="1" vertex="1">
          <mxGeometry x="-20" y="280" width="870" height="530" as="geometry" />
        </mxCell>
        <mxCell id="-QEYVNw1Sq_qMehAPY2h-4" value="" style="shape=module;jettyWidth=8;jettyHeight=4;" parent="-QEYVNw1Sq_qMehAPY2h-3" vertex="1">
          <mxGeometry x="1" width="20" height="20" relative="1" as="geometry">
            <mxPoint x="-27" y="7" as="offset" />
          </mxGeometry>
        </mxCell>
        <mxCell id="-QEYVNw1Sq_qMehAPY2h-5" value="" style="verticalLabelPosition=bottom;verticalAlign=top;html=1;shape=mxgraph.basic.rect;fillColor2=none;strokeWidth=1;size=20;indent=5;" parent="1" vertex="1">
          <mxGeometry x="340" y="270" width="20" height="20" as="geometry" />
        </mxCell>
        <mxCell id="-QEYVNw1Sq_qMehAPY2h-6" value="" style="endArrow=none;html=1;rounded=0;exitX=0.488;exitY=0.015;exitDx=0;exitDy=0;exitPerimeter=0;entryX=0.488;entryY=1.026;entryDx=0;entryDy=0;entryPerimeter=0;" parent="1" source="-QEYVNw1Sq_qMehAPY2h-27" target="-QEYVNw1Sq_qMehAPY2h-5" edge="1">
          <mxGeometry width="50" height="50" relative="1" as="geometry">
            <mxPoint x="410" y="370" as="sourcePoint" />
            <mxPoint x="460" y="320" as="targetPoint" />
          </mxGeometry>
        </mxCell>
        <mxCell id="-QEYVNw1Sq_qMehAPY2h-7" value="" style="ellipse;whiteSpace=wrap;html=1;align=center;aspect=fixed;fillColor=none;strokeColor=none;resizable=0;perimeter=centerPerimeter;rotatable=0;allowArrows=0;points=[];outlineConnect=1;" parent="1" vertex="1">
          <mxGeometry x="370" y="390" width="10" height="10" as="geometry" />
        </mxCell>
        <mxCell id="-QEYVNw1Sq_qMehAPY2h-8" value="" style="ellipse;whiteSpace=wrap;html=1;aspect=fixed;" parent="1" vertex="1">
          <mxGeometry x="335" y="170" width="30" height="30" as="geometry" />
        </mxCell>
        <mxCell id="-QEYVNw1Sq_qMehAPY2h-9" value="" style="endArrow=none;html=1;rounded=0;entryX=0.5;entryY=1;entryDx=0;entryDy=0;exitX=0.55;exitY=0.011;exitDx=0;exitDy=0;exitPerimeter=0;" parent="1" source="-QEYVNw1Sq_qMehAPY2h-5" target="-QEYVNw1Sq_qMehAPY2h-8" edge="1">
          <mxGeometry width="50" height="50" relative="1" as="geometry">
            <mxPoint x="320" y="280" as="sourcePoint" />
            <mxPoint x="370" y="230" as="targetPoint" />
          </mxGeometry>
        </mxCell>
        <mxCell id="-QEYVNw1Sq_qMehAPY2h-10" value="UI" style="edgeLabel;html=1;align=center;verticalAlign=middle;resizable=0;points=[];" parent="-QEYVNw1Sq_qMehAPY2h-9" vertex="1" connectable="0">
          <mxGeometry x="0.7303" y="1" relative="1" as="geometry">
            <mxPoint x="-9" y="4" as="offset" />
          </mxGeometry>
        </mxCell>
        <mxCell id="-QEYVNw1Sq_qMehAPY2h-11" value="«component»&lt;div&gt;«container (C4)»&lt;br&gt;&lt;b&gt;Planeamento&lt;/b&gt;&lt;/div&gt;" style="html=1;dropTarget=0;whiteSpace=wrap;" parent="1" vertex="1">
          <mxGeometry x="600" y="340" width="180" height="90" as="geometry" />
        </mxCell>
        <mxCell id="-QEYVNw1Sq_qMehAPY2h-12" value="" style="shape=module;jettyWidth=8;jettyHeight=4;" parent="-QEYVNw1Sq_qMehAPY2h-11" vertex="1">
          <mxGeometry x="1" width="20" height="20" relative="1" as="geometry">
            <mxPoint x="-27" y="7" as="offset" />
          </mxGeometry>
        </mxCell>
        <mxCell id="-QEYVNw1Sq_qMehAPY2h-13" value="«component»&lt;div&gt;«container (C4)»&lt;br&gt;&lt;b&gt;HospitalApp&lt;/b&gt;&lt;/div&gt;" style="html=1;dropTarget=0;whiteSpace=wrap;" parent="1" vertex="1">
          <mxGeometry x="280" y="340" width="180" height="90" as="geometry" />
        </mxCell>
        <mxCell id="-QEYVNw1Sq_qMehAPY2h-27" value="" style="verticalLabelPosition=bottom;verticalAlign=top;html=1;shape=mxgraph.basic.rect;fillColor2=none;strokeWidth=1;size=20;indent=5;" parent="1" vertex="1">
          <mxGeometry x="340" y="330" width="20" height="20" as="geometry" />
        </mxCell>
        <mxCell id="-QEYVNw1Sq_qMehAPY2h-28" value="«component»&lt;br&gt;«container (C4)»&lt;div&gt;&lt;b&gt;Backend&lt;/b&gt;&lt;/div&gt;" style="rounded=0;whiteSpace=wrap;html=1;" parent="1" vertex="1">
          <mxGeometry x="280" y="550" width="180" height="105" as="geometry" />
        </mxCell>
        <mxCell id="-QEYVNw1Sq_qMehAPY2h-38" value="«component»&lt;br&gt;«container (C4)»&lt;div&gt;&lt;b&gt;BCP&lt;/b&gt;&lt;/div&gt;" style="rounded=0;whiteSpace=wrap;html=1;" parent="1" vertex="1">
          <mxGeometry x="610" y="570" width="180" height="105" as="geometry" />
        </mxCell>
        <mxCell id="-QEYVNw1Sq_qMehAPY2h-43" value="" style="rounded=0;orthogonalLoop=1;jettySize=auto;html=1;endArrow=halfCircle;endFill=0;endSize=6;strokeWidth=1;sketch=0;exitX=0.5;exitY=1;exitDx=0;exitDy=0;" parent="1" source="-QEYVNw1Sq_qMehAPY2h-47" edge="1">
          <mxGeometry relative="1" as="geometry">
            <mxPoint x="359.99999999999994" y="487.15999999999997" as="sourcePoint" />
            <mxPoint x="350" y="500" as="targetPoint" />
          </mxGeometry>
        </mxCell>
        <mxCell id="-QEYVNw1Sq_qMehAPY2h-44" value="" style="rounded=0;orthogonalLoop=1;jettySize=auto;html=1;endArrow=oval;endFill=0;sketch=0;sourcePerimeterSpacing=0;targetPerimeterSpacing=0;endSize=10;exitX=0.5;exitY=0;exitDx=0;exitDy=0;" parent="1" source="-QEYVNw1Sq_qMehAPY2h-46" edge="1">
          <mxGeometry relative="1" as="geometry">
            <mxPoint x="379.9999999999999" y="551.54" as="sourcePoint" />
            <mxPoint x="350" y="500" as="targetPoint" />
          </mxGeometry>
        </mxCell>
        <mxCell id="-QEYVNw1Sq_qMehAPY2h-56" value="&lt;b&gt;Backend API&lt;/b&gt;" style="edgeLabel;html=1;align=center;verticalAlign=middle;resizable=0;points=[];" parent="-QEYVNw1Sq_qMehAPY2h-44" vertex="1" connectable="0">
          <mxGeometry x="0.8167" y="3" relative="1" as="geometry">
            <mxPoint x="-37" y="14" as="offset" />
          </mxGeometry>
        </mxCell>
        <mxCell id="-QEYVNw1Sq_qMehAPY2h-45" value="" style="ellipse;whiteSpace=wrap;html=1;align=center;aspect=fixed;fillColor=none;strokeColor=none;resizable=0;perimeter=centerPerimeter;rotatable=0;allowArrows=0;points=[];outlineConnect=1;" parent="1" vertex="1">
          <mxGeometry x="435" y="420" width="10" height="10" as="geometry" />
        </mxCell>
        <mxCell id="-QEYVNw1Sq_qMehAPY2h-46" value="" style="rounded=0;whiteSpace=wrap;html=1;" parent="1" vertex="1">
          <mxGeometry x="340" y="540" width="20" height="20" as="geometry" />
        </mxCell>
        <mxCell id="-QEYVNw1Sq_qMehAPY2h-47" value="" style="rounded=0;whiteSpace=wrap;html=1;" parent="1" vertex="1">
          <mxGeometry x="340" y="420" width="20" height="20" as="geometry" />
        </mxCell>
        <mxCell id="-QEYVNw1Sq_qMehAPY2h-48" value="" style="rounded=0;whiteSpace=wrap;html=1;" parent="1" vertex="1">
          <mxGeometry x="450" y="375" width="20" height="20" as="geometry" />
        </mxCell>
        <mxCell id="-QEYVNw1Sq_qMehAPY2h-49" value="" style="rounded=0;whiteSpace=wrap;html=1;" parent="1" vertex="1">
          <mxGeometry x="590" y="375" width="20" height="20" as="geometry" />
        </mxCell>
        <mxCell id="-QEYVNw1Sq_qMehAPY2h-57" value="" style="rounded=0;orthogonalLoop=1;jettySize=auto;html=1;endArrow=halfCircle;endFill=0;endSize=6;strokeWidth=1;sketch=0;exitX=1;exitY=0.5;exitDx=0;exitDy=0;" parent="1" source="-QEYVNw1Sq_qMehAPY2h-48" edge="1">
          <mxGeometry relative="1" as="geometry">
            <mxPoint x="470" y="380" as="sourcePoint" />
            <mxPoint x="530" y="385" as="targetPoint" />
          </mxGeometry>
        </mxCell>
        <mxCell id="-QEYVNw1Sq_qMehAPY2h-58" value="" style="rounded=0;orthogonalLoop=1;jettySize=auto;html=1;endArrow=oval;endFill=0;sketch=0;sourcePerimeterSpacing=0;targetPerimeterSpacing=0;endSize=10;exitX=0;exitY=0.5;exitDx=0;exitDy=0;" parent="1" source="-QEYVNw1Sq_qMehAPY2h-49" edge="1">
          <mxGeometry relative="1" as="geometry">
            <mxPoint x="510" y="460" as="sourcePoint" />
            <mxPoint x="530" y="385" as="targetPoint" />
          </mxGeometry>
        </mxCell>
        <mxCell id="-QEYVNw1Sq_qMehAPY2h-59" value="&lt;b&gt;Planning API&lt;/b&gt;" style="edgeLabel;html=1;align=center;verticalAlign=middle;resizable=0;points=[];" parent="-QEYVNw1Sq_qMehAPY2h-58" vertex="1" connectable="0">
          <mxGeometry x="0.8167" y="3" relative="1" as="geometry">
            <mxPoint x="-6" y="12" as="offset" />
          </mxGeometry>
        </mxCell>
        <mxCell id="muBcWbhCH78BwWUGCT8C-1" value="«component»&lt;div&gt;«container (C4)»&lt;br&gt;&lt;b&gt;Database&lt;/b&gt;&lt;/div&gt;" style="html=1;dropTarget=0;whiteSpace=wrap;" parent="1" vertex="1">
          <mxGeometry x="435" y="690" width="130" height="65" as="geometry" />
        </mxCell>
        <mxCell id="muBcWbhCH78BwWUGCT8C-2" value="" style="shape=module;jettyWidth=8;jettyHeight=4;" parent="muBcWbhCH78BwWUGCT8C-1" vertex="1">
          <mxGeometry x="1" width="20" height="20" relative="1" as="geometry">
            <mxPoint x="-27" y="7" as="offset" />
          </mxGeometry>
        </mxCell>
        <mxCell id="muBcWbhCH78BwWUGCT8C-9" value="" style="rounded=0;whiteSpace=wrap;html=1;" parent="1" vertex="1">
          <mxGeometry x="450" y="592.5" width="20" height="20" as="geometry" />
        </mxCell>
        <mxCell id="muBcWbhCH78BwWUGCT8C-10" value="" style="rounded=0;whiteSpace=wrap;html=1;" parent="1" vertex="1">
          <mxGeometry x="500" y="680" width="20" height="20" as="geometry" />
        </mxCell>
        <mxCell id="muBcWbhCH78BwWUGCT8C-11" value="" style="rounded=0;orthogonalLoop=1;jettySize=auto;html=1;endArrow=halfCircle;endFill=0;endSize=6;strokeWidth=1;sketch=0;exitX=1;exitY=0.5;exitDx=0;exitDy=0;" parent="1" source="muBcWbhCH78BwWUGCT8C-9" edge="1">
          <mxGeometry relative="1" as="geometry">
            <mxPoint x="480" y="395" as="sourcePoint" />
            <mxPoint x="510" y="630" as="targetPoint" />
            <Array as="points">
              <mxPoint x="510" y="603" />
            </Array>
          </mxGeometry>
        </mxCell>
        <mxCell id="muBcWbhCH78BwWUGCT8C-12" value="" style="rounded=0;orthogonalLoop=1;jettySize=auto;html=1;endArrow=oval;endFill=0;sketch=0;sourcePerimeterSpacing=0;targetPerimeterSpacing=0;endSize=10;exitX=0.5;exitY=0;exitDx=0;exitDy=0;" parent="1" source="muBcWbhCH78BwWUGCT8C-10" edge="1">
          <mxGeometry relative="1" as="geometry">
            <mxPoint x="600" y="395" as="sourcePoint" />
            <mxPoint x="510" y="630" as="targetPoint" />
          </mxGeometry>
        </mxCell>
        <mxCell id="muBcWbhCH78BwWUGCT8C-13" value="&lt;b&gt;Database API&lt;/b&gt;" style="edgeLabel;html=1;align=center;verticalAlign=middle;resizable=0;points=[];" parent="muBcWbhCH78BwWUGCT8C-12" vertex="1" connectable="0">
          <mxGeometry x="0.8167" y="3" relative="1" as="geometry">
            <mxPoint x="43" y="12" as="offset" />
          </mxGeometry>
        </mxCell>
        <mxCell id="Vj7ZxmTKHOAd4YX_Qh6m-1" value="«component»&lt;div&gt;«container (C4)»&lt;br&gt;&lt;b&gt;ExpressBackend&lt;/b&gt;&lt;/div&gt;" style="html=1;dropTarget=0;whiteSpace=wrap;" parent="1" vertex="1">
          <mxGeometry x="30" y="462.5" width="170" height="80" as="geometry" />
        </mxCell>
        <mxCell id="Vj7ZxmTKHOAd4YX_Qh6m-2" value="" style="shape=module;jettyWidth=8;jettyHeight=4;" parent="Vj7ZxmTKHOAd4YX_Qh6m-1" vertex="1">
          <mxGeometry x="1" width="20" height="20" relative="1" as="geometry">
            <mxPoint x="-27" y="7" as="offset" />
          </mxGeometry>
        </mxCell>
        <mxCell id="Vj7ZxmTKHOAd4YX_Qh6m-3" value="«component»&lt;div&gt;«container (C4)»&lt;br&gt;&lt;b&gt;MongoDB&lt;/b&gt;&lt;/div&gt;" style="html=1;dropTarget=0;whiteSpace=wrap;" parent="1" vertex="1">
          <mxGeometry x="55" y="622.5" width="130" height="65" as="geometry" />
        </mxCell>
        <mxCell id="Vj7ZxmTKHOAd4YX_Qh6m-4" value="" style="shape=module;jettyWidth=8;jettyHeight=4;" parent="Vj7ZxmTKHOAd4YX_Qh6m-3" vertex="1">
          <mxGeometry x="1" width="20" height="20" relative="1" as="geometry">
            <mxPoint x="-27" y="7" as="offset" />
          </mxGeometry>
        </mxCell>
        <mxCell id="Vj7ZxmTKHOAd4YX_Qh6m-5" value="" style="rounded=0;whiteSpace=wrap;html=1;" parent="1" vertex="1">
          <mxGeometry x="110" y="612.5" width="20" height="20" as="geometry" />
        </mxCell>
        <mxCell id="Vj7ZxmTKHOAd4YX_Qh6m-6" value="" style="rounded=0;orthogonalLoop=1;jettySize=auto;html=1;endArrow=halfCircle;endFill=0;endSize=6;strokeWidth=1;sketch=0;exitX=0.5;exitY=1;exitDx=0;exitDy=0;" parent="1" edge="1">
          <mxGeometry relative="1" as="geometry">
            <mxPoint x="120" y="552.5" as="sourcePoint" />
            <mxPoint x="120" y="582.5" as="targetPoint" />
          </mxGeometry>
        </mxCell>
        <mxCell id="Vj7ZxmTKHOAd4YX_Qh6m-7" value="" style="rounded=0;orthogonalLoop=1;jettySize=auto;html=1;endArrow=oval;endFill=0;sketch=0;sourcePerimeterSpacing=0;targetPerimeterSpacing=0;endSize=10;exitX=0.5;exitY=0;exitDx=0;exitDy=0;" parent="1" source="Vj7ZxmTKHOAd4YX_Qh6m-5" edge="1">
          <mxGeometry relative="1" as="geometry">
            <mxPoint x="316" y="382.5" as="sourcePoint" />
            <mxPoint x="120" y="582.5" as="targetPoint" />
          </mxGeometry>
        </mxCell>
        <mxCell id="Vj7ZxmTKHOAd4YX_Qh6m-8" value="&lt;b&gt;Database API&lt;/b&gt;" style="edgeLabel;html=1;align=center;verticalAlign=middle;resizable=0;points=[];" parent="Vj7ZxmTKHOAd4YX_Qh6m-7" vertex="1" connectable="0">
          <mxGeometry x="0.7483" relative="1" as="geometry">
            <mxPoint x="-54" y="-4" as="offset" />
          </mxGeometry>
        </mxCell>
        <mxCell id="Vj7ZxmTKHOAd4YX_Qh6m-9" value="" style="rounded=0;orthogonalLoop=1;jettySize=auto;html=1;endArrow=oval;endFill=0;sketch=0;sourcePerimeterSpacing=0;targetPerimeterSpacing=0;endSize=10;exitX=0.5;exitY=0;exitDx=0;exitDy=0;" parent="1" edge="1">
          <mxGeometry relative="1" as="geometry">
            <mxPoint x="115" y="452.5" as="sourcePoint" />
            <mxPoint x="180" y="413" as="targetPoint" />
            <Array as="points">
              <mxPoint x="115" y="412.5" />
            </Array>
          </mxGeometry>
        </mxCell>
        <mxCell id="Vj7ZxmTKHOAd4YX_Qh6m-10" value="&lt;b&gt;ExpressBackend&lt;/b&gt;&lt;div&gt;&lt;b&gt;API&lt;/b&gt;&lt;/div&gt;" style="edgeLabel;html=1;align=center;verticalAlign=middle;resizable=0;points=[];" parent="Vj7ZxmTKHOAd4YX_Qh6m-9" vertex="1" connectable="0">
          <mxGeometry x="0.7483" relative="1" as="geometry">
            <mxPoint x="-35" y="-20" as="offset" />
          </mxGeometry>
        </mxCell>
        <mxCell id="Vj7ZxmTKHOAd4YX_Qh6m-11" value="" style="rounded=0;whiteSpace=wrap;html=1;" parent="1" vertex="1">
          <mxGeometry x="110" y="540" width="20" height="20" as="geometry" />
        </mxCell>
        <mxCell id="Vj7ZxmTKHOAd4YX_Qh6m-12" value="" style="rounded=0;whiteSpace=wrap;html=1;" parent="1" vertex="1">
          <mxGeometry x="105" y="450" width="20" height="20" as="geometry" />
        </mxCell>
        <mxCell id="Vj7ZxmTKHOAd4YX_Qh6m-14" value="" style="rounded=0;orthogonalLoop=1;jettySize=auto;html=1;endArrow=halfCircle;endFill=0;endSize=6;strokeWidth=1;sketch=0;exitX=0.5;exitY=1;exitDx=0;exitDy=0;" parent="1" edge="1">
          <mxGeometry relative="1" as="geometry">
            <mxPoint x="349.58" y="440" as="sourcePoint" />
            <mxPoint x="180" y="420" as="targetPoint" />
            <Array as="points">
              <mxPoint x="350" y="460" />
              <mxPoint x="250" y="460" />
            </Array>
          </mxGeometry>
        </mxCell>
        <mxCell id="Vj7ZxmTKHOAd4YX_Qh6m-15" value="" style="rounded=0;orthogonalLoop=1;jettySize=auto;html=1;endArrow=halfCircle;endFill=0;endSize=6;strokeWidth=1;sketch=0;exitX=0.5;exitY=1;exitDx=0;exitDy=0;" parent="1" edge="1">
          <mxGeometry relative="1" as="geometry">
            <mxPoint x="119.75" y="560" as="sourcePoint" />
            <mxPoint x="340" y="500" as="targetPoint" />
            <Array as="points">
              <mxPoint x="120" y="570" />
              <mxPoint x="220" y="570" />
              <mxPoint x="220" y="500" />
            </Array>
          </mxGeometry>
        </mxCell>
        <mxCell id="Vj7ZxmTKHOAd4YX_Qh6m-16" value="«component»&lt;br&gt;«container (C4)»&lt;div&gt;&lt;b&gt;IAM&lt;/b&gt;&lt;/div&gt;" style="rounded=0;whiteSpace=wrap;html=1;" parent="1" vertex="1">
          <mxGeometry x="480" y="445" width="180" height="105" as="geometry" />
        </mxCell>
        <mxCell id="Vj7ZxmTKHOAd4YX_Qh6m-17" value="«component»&lt;div&gt;«container (C4)»&lt;br&gt;&lt;b&gt;DB&lt;/b&gt;&lt;/div&gt;" style="html=1;dropTarget=0;whiteSpace=wrap;" parent="1" vertex="1">
          <mxGeometry x="710" y="470" width="130" height="65" as="geometry" />
        </mxCell>
        <mxCell id="Vj7ZxmTKHOAd4YX_Qh6m-18" value="" style="shape=module;jettyWidth=8;jettyHeight=4;" parent="Vj7ZxmTKHOAd4YX_Qh6m-17" vertex="1">
          <mxGeometry x="1" width="20" height="20" relative="1" as="geometry">
            <mxPoint x="-27" y="7" as="offset" />
          </mxGeometry>
        </mxCell>
        <mxCell id="Vj7ZxmTKHOAd4YX_Qh6m-19" value="" style="rounded=0;whiteSpace=wrap;html=1;" parent="1" vertex="1">
          <mxGeometry x="700" y="492.5" width="20" height="20" as="geometry" />
        </mxCell>
        <mxCell id="Vj7ZxmTKHOAd4YX_Qh6m-20" value="" style="rounded=0;orthogonalLoop=1;jettySize=auto;html=1;endArrow=halfCircle;endFill=0;endSize=6;strokeWidth=1;sketch=0;exitX=1;exitY=0.5;exitDx=0;exitDy=0;" parent="1" source="Vj7ZxmTKHOAd4YX_Qh6m-23" edge="1">
          <mxGeometry relative="1" as="geometry">
            <mxPoint x="670" y="482.5" as="sourcePoint" />
            <mxPoint x="680" y="500" as="targetPoint" />
          </mxGeometry>
        </mxCell>
        <mxCell id="Vj7ZxmTKHOAd4YX_Qh6m-21" value="" style="rounded=0;orthogonalLoop=1;jettySize=auto;html=1;endArrow=oval;endFill=0;sketch=0;sourcePerimeterSpacing=0;targetPerimeterSpacing=0;endSize=10;exitX=0;exitY=0.5;exitDx=0;exitDy=0;" parent="1" source="Vj7ZxmTKHOAd4YX_Qh6m-19" edge="1">
          <mxGeometry relative="1" as="geometry">
            <mxPoint x="695" y="503.75" as="sourcePoint" />
            <mxPoint x="680" y="500" as="targetPoint" />
          </mxGeometry>
        </mxCell>
        <mxCell id="Vj7ZxmTKHOAd4YX_Qh6m-22" value="&lt;b&gt;Database API&lt;/b&gt;" style="edgeLabel;html=1;align=center;verticalAlign=middle;resizable=0;points=[];" parent="Vj7ZxmTKHOAd4YX_Qh6m-21" vertex="1" connectable="0">
          <mxGeometry x="0.7483" relative="1" as="geometry">
            <mxPoint x="17" y="-40" as="offset" />
          </mxGeometry>
        </mxCell>
        <mxCell id="Vj7ZxmTKHOAd4YX_Qh6m-23" value="" style="rounded=0;whiteSpace=wrap;html=1;" parent="1" vertex="1">
          <mxGeometry x="650" y="492.5" width="20" height="20" as="geometry" />
        </mxCell>
        <mxCell id="Vj7ZxmTKHOAd4YX_Qh6m-24" value="" style="rounded=0;whiteSpace=wrap;html=1;" parent="1" vertex="1">
          <mxGeometry x="470" y="487.5" width="20" height="20" as="geometry" />
        </mxCell>
        <mxCell id="Vj7ZxmTKHOAd4YX_Qh6m-25" value="" style="rounded=0;orthogonalLoop=1;jettySize=auto;html=1;endArrow=oval;endFill=0;sketch=0;sourcePerimeterSpacing=0;targetPerimeterSpacing=0;endSize=10;exitX=0;exitY=0.5;exitDx=0;exitDy=0;" parent="1" source="Vj7ZxmTKHOAd4YX_Qh6m-24" edge="1">
          <mxGeometry relative="1" as="geometry">
            <mxPoint x="465" y="498.75" as="sourcePoint" />
            <mxPoint x="450" y="495" as="targetPoint" />
          </mxGeometry>
        </mxCell>
        <mxCell id="Vj7ZxmTKHOAd4YX_Qh6m-26" value="&lt;b&gt;IAM API&lt;/b&gt;" style="edgeLabel;html=1;align=center;verticalAlign=middle;resizable=0;points=[];" parent="Vj7ZxmTKHOAd4YX_Qh6m-25" vertex="1" connectable="0">
          <mxGeometry x="0.7483" relative="1" as="geometry">
            <mxPoint x="18" y="-25" as="offset" />
          </mxGeometry>
        </mxCell>
        <mxCell id="Vj7ZxmTKHOAd4YX_Qh6m-27" value="" style="rounded=0;orthogonalLoop=1;jettySize=auto;html=1;endArrow=halfCircle;endFill=0;endSize=6;strokeWidth=1;sketch=0;exitX=0.5;exitY=1;exitDx=0;exitDy=0;" parent="1" edge="1">
          <mxGeometry relative="1" as="geometry">
            <mxPoint x="119.75" y="560" as="sourcePoint" />
            <mxPoint x="440" y="490" as="targetPoint" />
            <Array as="points">
              <mxPoint x="120" y="570" />
              <mxPoint x="220" y="570" />
              <mxPoint x="220" y="480" />
              <mxPoint x="340" y="480" />
            </Array>
          </mxGeometry>
        </mxCell>
        <mxCell id="Vj7ZxmTKHOAd4YX_Qh6m-28" value="" style="rounded=0;orthogonalLoop=1;jettySize=auto;html=1;endArrow=halfCircle;endFill=0;endSize=6;strokeWidth=1;sketch=0;exitX=1;exitY=0.5;exitDx=0;exitDy=0;" parent="1" source="muBcWbhCH78BwWUGCT8C-9" edge="1">
          <mxGeometry relative="1" as="geometry">
            <mxPoint x="470" y="605.5" as="sourcePoint" />
            <mxPoint x="450" y="499.37865025788835" as="targetPoint" />
            <Array as="points">
              <mxPoint x="490" y="590" />
            </Array>
          </mxGeometry>
        </mxCell>
        <mxCell id="Vj7ZxmTKHOAd4YX_Qh6m-29" value="" style="rounded=0;orthogonalLoop=1;jettySize=auto;html=1;endArrow=halfCircle;endFill=0;endSize=6;strokeWidth=1;sketch=0;exitX=1;exitY=0.5;exitDx=0;exitDy=0;" parent="1" edge="1">
          <mxGeometry relative="1" as="geometry">
            <mxPoint x="470" y="384.74" as="sourcePoint" />
            <mxPoint x="450" y="490" as="targetPoint" />
            <Array as="points">
              <mxPoint x="490" y="385" />
            </Array>
          </mxGeometry>
        </mxCell>
        <mxCell id="Vj7ZxmTKHOAd4YX_Qh6m-31" value="" style="rounded=0;orthogonalLoop=1;jettySize=auto;html=1;endArrow=halfCircle;endFill=0;endSize=6;strokeWidth=1;sketch=0;exitX=1;exitY=0.5;exitDx=0;exitDy=0;" parent="1" edge="1">
          <mxGeometry relative="1" as="geometry">
            <mxPoint x="470" y="601.81" as="sourcePoint" />
            <mxPoint x="190" y="410" as="targetPoint" />
            <Array as="points">
              <mxPoint x="490" y="588.81" />
              <mxPoint x="450" y="520" />
            </Array>
          </mxGeometry>
        </mxCell>
      </root>
    </mxGraphModel>
  </diagram>
</mxfile>
